<svg width="40" height="40" viewBox="0 0 40 40" fill="none" xmlns="http://www.w3.org/2000/svg">
<path d="M25.0667 4.70588H40V28.2353H21.3333L20.2667 23.5294H5.33333V40H0V0H24L25.0667 4.70588ZM24 23.5294H29.3333V18.8235H34.6667V14.1176H29.3333V9.41177H24V14.1176L21.3333 9.41177V4.70588H16V9.41177H10.6667V4.70588H5.33333V9.41177H10.6667V14.1176H5.33333V18.8235H10.6667V14.1176H16V18.8235H21.3333V14.1176L24 18.8235V23.5294ZM16 14.1176V9.41177H21.3333V14.1176H16ZM24 14.1176H29.3333V18.8235H24V14.1176Z" fill="url(#paint0_linear_57_125)"/>
<defs>
<linearGradient id="paint0_linear_57_125" x1="0" y1="10" x2="61.5" y2="-18.5" gradientUnits="userSpaceOnUse">
<stop stop-color="#851FD2"/>
<stop offset="1" stop-color="#F2E5FB"/>
</linearGradient>
</defs>
</svg>
